<svg width="435" height="285" viewBox="0 0 435 285" fill="none" xmlns="http://www.w3.org/2000/svg">
<rect width="435" height="285" rx="5" fill="black"/>
<path d="M287.841 226.152C287.841 232.692 285.814 238 283.344 238H151.583C149.111 238 147.089 232.692 147.089 226.152C147.089 219.625 149.111 214.322 151.583 214.322H283.344C285.819 214.322 287.841 219.625 287.841 226.152Z" fill="#4C6A76"/>
<path d="M201.72 226.152C201.72 219.625 203.742 214.322 206.22 214.322H151.586C149.114 214.322 147.091 219.625 147.091 226.152C147.091 232.692 149.114 238 151.586 238H206.223C203.742 238 201.72 232.692 201.72 226.152Z" fill="#243438"/>
<path d="M220.006 121.035C221.463 122.506 221.508 124.838 220.104 126.242C218.7 127.647 216.364 127.593 214.907 126.133L162.471 73.7004C161.006 72.2292 160.956 69.8994 162.362 68.4926C163.766 67.0886 166.099 67.1417 167.559 68.6129L220.006 121.035Z" fill="#2E4145"/>
<path d="M214.927 121.035C213.467 122.506 213.417 124.838 214.823 126.242C216.23 127.647 218.56 127.593 220.017 126.133L272.453 73.7004C273.919 72.2292 273.966 69.8994 272.562 68.4926C271.158 67.0886 268.825 67.1417 267.36 68.6129L214.927 121.035Z" fill="#2E4145"/>
<path d="M306.827 115.105C306.653 105.299 298.201 97.3787 287.771 97.3787H147.089C136.656 97.3787 128.196 105.299 128.02 115.105H127.986V204.686H128.02C128.193 214.503 136.654 222.419 147.077 222.419H287.732C298.167 222.419 306.625 214.503 306.799 204.686H306.832V115.105H306.801" fill="#2E4145"/>
<path d="M253.915 101.882H179.166C155.577 101.882 136.382 119.6 136.382 141.374V169.946C136.382 191.715 155.577 209.41 179.166 209.41H253.918C277.51 209.41 296.707 191.703 296.707 169.946V141.374C296.707 119.605 277.507 101.882 253.915 101.882Z" fill="#243438"/>
<path d="M161.462 212.325C161.365 212.237 161.231 212.216 161.059 212.26L160.013 212.537C159.683 212.623 159.52 212.837 159.524 213.178V214.285C159.524 214.451 159.56 214.572 159.633 214.646C159.683 214.7 159.758 214.725 159.856 214.722C159.914 214.72 159.972 214.712 160.03 214.699L161.076 214.434C161.397 214.35 161.562 214.132 161.571 213.782V212.674C161.567 212.51 161.531 212.394 161.462 212.325ZM160.908 213.589C160.908 213.72 160.855 213.782 160.735 213.818L160.363 213.913C160.337 213.923 160.323 213.926 160.321 213.924C160.268 213.924 160.236 213.913 160.223 213.891C160.193 213.858 160.176 213.815 160.178 213.771V213.365C160.178 213.244 160.236 213.168 160.351 213.139L160.732 213.041C160.788 213.03 160.841 213.041 160.869 213.066C160.891 213.086 160.903 213.128 160.905 213.192L160.908 213.589ZM158.905 213.164C158.909 212.823 158.746 212.609 158.416 212.523L157.381 212.246C157.195 212.202 157.06 212.223 156.978 212.311C156.904 212.378 156.867 212.494 156.869 212.66V213.768C156.871 214.118 157.032 214.336 157.353 214.42L158.405 214.685C158.461 214.708 158.525 214.708 158.525 214.708C158.668 214.708 158.749 214.685 158.799 214.632C158.874 214.558 158.91 214.437 158.908 214.271L158.905 213.164ZM158.22 213.885C158.198 213.908 158.164 213.919 158.164 213.919C158.164 213.919 158.094 213.919 158.072 213.908L157.697 213.81C157.588 213.776 157.524 213.712 157.524 213.58V213.186C157.524 213.125 157.529 213.077 157.569 213.055C157.595 213.03 157.64 213.023 157.706 213.032L158.075 213.13C158.192 213.162 158.252 213.237 158.254 213.357V213.765C158.254 213.819 158.243 213.859 158.22 213.885ZM159.644 216.045L159.708 216.031L160.077 215.935C160.197 215.9 160.255 215.824 160.254 215.706V215.298C160.254 215.242 160.239 215.204 160.209 215.183C160.185 215.146 160.137 215.137 160.066 215.158L159.697 215.253C159.581 215.275 159.524 215.352 159.524 215.482V215.877C159.524 215.942 159.537 215.986 159.563 216.008C159.573 216.019 159.586 216.029 159.6 216.035C159.613 216.041 159.629 216.044 159.644 216.045ZM158.794 216.045L158.729 216.031L158.352 215.935C158.248 215.899 158.178 215.826 158.178 215.706V215.298C158.178 215.242 158.195 215.204 158.229 215.183C158.26 215.146 158.307 215.137 158.368 215.158L158.74 215.253C158.858 215.275 158.916 215.352 158.914 215.482V215.877C158.914 215.942 158.903 215.986 158.88 216.008C158.869 216.02 158.856 216.03 158.841 216.036C158.826 216.042 158.81 216.045 158.794 216.045ZM168.58 212.162C168.482 212.079 168.351 212.042 168.174 212.101L167.123 212.361C166.8 212.449 166.639 212.667 166.639 213.016V214.123C166.639 214.285 166.673 214.402 166.742 214.473C166.807 214.53 166.891 214.56 166.977 214.557C167.028 214.555 167.085 214.547 167.151 214.534L168.185 214.257C168.518 214.176 168.675 213.958 168.686 213.608V212.504C168.682 212.343 168.647 212.23 168.58 212.162ZM168.023 213.429C168.023 213.547 167.965 213.623 167.85 213.659L167.481 213.757H167.416C167.416 213.757 167.36 213.757 167.341 213.732C167.341 213.695 167.29 213.659 167.29 213.6V213.203C167.29 213.088 167.36 213.002 167.469 212.968L167.85 212.881C167.873 212.872 167.899 212.869 167.924 212.873C167.949 212.877 167.973 212.887 167.993 212.904C168.015 212.926 168.026 212.966 168.026 213.024L168.023 213.429ZM166.026 213.024C166.026 212.675 165.861 212.457 165.531 212.369L164.496 212.109C164.317 212.051 164.186 212.087 164.096 212.171C164.022 212.234 163.986 212.351 163.987 212.52V213.622C163.987 213.973 164.151 214.19 164.48 214.274L165.526 214.548L165.643 214.571C165.786 214.571 165.861 214.537 165.912 214.484C165.993 214.408 166.026 214.302 166.026 214.14V213.024ZM165.335 213.743C165.319 213.768 165.285 213.768 165.285 213.768H165.221L164.818 213.67C164.702 213.635 164.645 213.558 164.645 213.441V213.035C164.643 212.979 164.658 212.939 164.689 212.915C164.706 212.881 164.765 212.87 164.832 212.892L165.201 212.979C165.253 212.993 165.298 213.024 165.33 213.066C165.362 213.109 165.379 213.161 165.377 213.214V213.611C165.375 213.658 165.36 213.703 165.335 213.743ZM166.756 215.849C166.756 215.849 166.79 215.849 166.815 215.835L167.184 215.751C167.304 215.719 167.363 215.639 167.363 215.51V215.116C167.365 215.06 167.35 215.016 167.318 214.985C167.292 214.955 167.245 214.947 167.176 214.962L166.807 215.06C166.695 215.092 166.637 215.17 166.633 215.295V215.692C166.633 215.75 166.648 215.79 166.678 215.812C166.689 215.837 166.715 215.849 166.756 215.849ZM165.9 215.849L165.842 215.835L165.473 215.751C165.361 215.719 165.303 215.639 165.299 215.51V215.116C165.299 215.06 165.312 215.016 165.338 214.985C165.377 214.951 165.419 214.951 165.492 214.962L165.856 215.06C165.973 215.092 166.031 215.17 166.029 215.295V215.692C166.029 215.75 166.018 215.79 165.996 215.812C165.962 215.846 165.94 215.849 165.9 215.849Z" fill="white"/>
<path d="M290.918 169.395C290.918 188.842 273.731 204.603 252.525 204.603H180.598C159.398 204.603 142.217 188.842 142.217 169.395V141.911C142.217 122.458 159.401 106.703 180.598 106.703H252.528C273.74 106.703 290.924 122.458 290.924 141.911L290.918 169.395Z" fill="#28A6DE"/>
<path d="M209.473 168.386C200.389 149.75 199.214 127.174 204.696 106.715H180.598C159.398 106.715 142.217 122.469 142.217 141.922V169.401C142.217 188.853 159.401 204.608 180.598 204.608H245.933C230.637 195.882 217.62 185.125 209.462 168.4" fill="#58C5E8"/>
<path d="M152.621 208.918C152.397 208.7 152.056 208.624 151.628 208.753L149.058 209.424C148.247 209.631 147.844 210.193 147.844 211.06L147.83 213.857C147.83 214.28 147.933 214.59 148.112 214.75C148.243 214.904 148.43 214.981 148.674 214.979C148.812 214.979 148.932 214.931 149.083 214.906L151.653 214.241C152.464 214.024 152.874 213.469 152.884 212.574V209.782C152.884 209.368 152.772 209.064 152.621 208.904M151.253 212.095C151.253 212.42 151.111 212.596 150.828 212.694L149.897 212.923C149.841 212.934 149.788 212.934 149.788 212.934C149.662 212.934 149.597 212.923 149.536 212.873C149.486 212.815 149.46 212.705 149.46 212.543V211.553C149.457 211.249 149.597 211.054 149.88 210.968L150.811 210.728C150.97 210.681 151.087 210.7 151.164 210.784C151.228 210.84 151.25 210.949 151.25 211.083V212.095M146.328 211.066C146.328 210.202 145.92 209.637 145.134 209.43L142.547 208.756C142.099 208.624 141.777 208.7 141.559 208.921C141.38 209.086 141.296 209.391 141.296 209.805V212.59C141.313 213.483 141.702 214.045 142.513 214.257L145.069 214.923C145.208 214.971 145.353 214.996 145.5 214.998C145.755 214.998 145.945 214.922 146.068 214.769C146.264 214.604 146.347 214.299 146.347 213.88L146.328 211.055M144.616 212.876C144.566 212.932 144.496 212.94 144.415 212.94C144.415 212.94 144.323 212.94 144.269 212.926L143.352 212.699C143.07 212.602 142.91 212.423 142.91 212.098V211.083C142.91 210.939 142.946 210.84 143.019 210.784C143.089 210.708 143.19 210.686 143.369 210.728L144.286 210.968C144.569 211.052 144.734 211.251 144.734 211.553V212.554C144.734 212.711 144.695 212.818 144.616 212.876ZM148.132 218.276C148.132 218.276 148.23 218.276 148.28 218.254L149.189 218.025C149.487 217.935 149.637 217.738 149.637 217.435V216.411C149.633 216.269 149.6 216.172 149.539 216.12C149.48 216.022 149.343 216.011 149.189 216.056L148.258 216.293C147.978 216.355 147.838 216.57 147.838 216.895L147.827 217.885C147.827 218.05 147.83 218.137 147.931 218.212C147.987 218.259 148.059 218.282 148.132 218.276ZM146.045 218.276C145.989 218.276 145.948 218.276 145.886 218.254L144.971 218.025C144.843 217.991 144.729 217.913 144.65 217.806C144.57 217.699 144.53 217.568 144.535 217.435V216.411C144.535 216.269 144.57 216.172 144.639 216.12C144.709 216.022 144.834 216.011 144.971 216.056L145.908 216.293C146.188 216.355 146.345 216.57 146.345 216.895V217.885C146.345 218.05 146.306 218.137 146.264 218.212C146.196 218.248 146.122 218.27 146.045 218.276Z" fill="#F05A2A"/>
<path d="M181.5 135C181.5 130.858 184.858 127.5 189 127.5H246C250.142 127.5 253.5 130.858 253.5 135V187C253.5 191.142 250.142 194.5 246 194.5H189C184.858 194.5 181.5 191.142 181.5 187V135Z" fill="#14AE5C"/>
<path d="M181.5 135C181.5 130.858 184.858 127.5 189 127.5H246C250.142 127.5 253.5 130.858 253.5 135V187C253.5 191.142 250.142 194.5 246 194.5H189C184.858 194.5 181.5 191.142 181.5 187V135Z" stroke="#C00F0C" stroke-linecap="round"/>
<path d="M221.5 157L213.5 165M213.5 157L221.5 165" stroke="#FEE9E7" stroke-width="1.6" stroke-linecap="round" stroke-linejoin="round"/>
<path d="M271.742 187.148C273.017 189.568 273.802 192.215 274.053 194.937C274.304 197.66 274.016 200.406 273.205 203.018C272.395 205.629 271.077 208.056 269.329 210.158C267.58 212.26 265.434 213.997 263.014 215.27L256.329 218.792L254.685 219.656C253.175 220.451 251.503 220.888 249.797 220.933C248.091 220.979 246.397 220.632 244.847 219.919L218.741 208.766L221.199 201.473L236.725 204.472L228.685 189.194L215.74 164.599L222.046 161.281L234.99 185.884L238.105 184.245L232.399 173.395L238.701 170.079L244.407 180.93L247.522 179.292L243.116 170.917L249.422 167.599L253.828 175.974L256.945 174.322L253.92 168.558L260.225 165.25L263.249 171.013L271.74 187.154L271.742 187.148ZM211.448 167.918C210.138 166.607 209.246 164.937 208.884 163.119C208.522 161.301 208.707 159.417 209.415 157.705C210.124 155.992 211.323 154.527 212.863 153.496C214.403 152.464 216.214 151.912 218.067 151.909C219.569 151.91 221.049 152.272 222.382 152.964C223.715 153.656 224.863 154.657 225.729 155.884C226.595 157.111 227.154 158.528 227.359 160.016C227.564 161.504 227.409 163.019 226.908 164.435L228.562 167.562C229.669 165.707 230.264 163.592 230.288 161.432C230.312 159.272 229.764 157.144 228.699 155.265C227.634 153.385 226.091 151.821 224.225 150.732C222.36 149.643 220.24 149.067 218.079 149.062C214.914 149.063 211.872 150.291 209.594 152.489C207.316 154.687 205.979 157.683 205.865 160.846C205.751 164.009 206.869 167.094 208.982 169.45C211.096 171.806 214.042 173.25 217.199 173.478L215.536 170.316C213.989 169.882 212.581 169.056 211.448 167.918Z" fill="#FEE9E7"/>
<path d="M47.2891 41.0527C46.4453 41.0527 46.0234 40.8242 46.0234 40.3672V19.748C46.0234 19.2793 46.4453 19.0449 47.2891 19.0449H47.5352C48.3672 19.0449 48.7832 19.2793 48.7832 19.748V29.3105H48.9062L56.5879 19.502C56.7285 19.3496 56.9512 19.2383 57.2559 19.168C57.5723 19.0859 57.918 19.0449 58.293 19.0449H58.5918C58.9434 19.0449 59.2129 19.0859 59.4004 19.168C59.5879 19.25 59.6816 19.3496 59.6816 19.4668C59.6816 19.6543 59.582 19.8652 59.3828 20.0996L51.5781 29.8379L61.0352 40.1211C61.2227 40.3203 61.3164 40.4844 61.3164 40.6133C61.3164 40.7891 61.2109 40.9062 61 40.9648C60.8008 41.0234 60.4492 41.0527 59.9453 41.0527H59.5586C59.1133 41.0527 58.7559 41.0293 58.4863 40.9824C58.2285 40.9355 58.0176 40.8242 57.8535 40.6484L48.9062 30.5938H48.7832V40.3672C48.7832 40.8242 48.3672 41.0527 47.5352 41.0527H47.2891ZM67.5918 41.1758C66.5488 41.1758 65.6172 40.8594 64.7969 40.2266C63.9766 39.5938 63.5664 38.4746 63.5664 36.8691V18.1836C63.5664 17.7266 63.9824 17.498 64.8145 17.498H64.9551C65.7754 17.498 66.1855 17.7266 66.1855 18.1836V36.623C66.1855 37.4785 66.3379 38.0762 66.6426 38.416C66.9473 38.7559 67.3574 38.9258 67.873 38.9258C68.2598 38.9258 68.5645 38.9023 68.7871 38.8555C69.0098 38.8086 69.1562 38.7852 69.2266 38.7852C69.4141 38.7852 69.5664 38.9727 69.6836 39.3477C69.8125 39.7227 69.877 40.0215 69.877 40.2441C69.877 40.8652 69.1152 41.1758 67.5918 41.1758ZM74.2891 20.7148C73.457 20.7148 73.041 20.4863 73.041 20.0293V18.1836C73.041 17.7266 73.457 17.498 74.2891 17.498H74.6582C75.502 17.498 75.9238 17.7266 75.9238 18.1836V20.0293C75.9238 20.4863 75.502 20.7148 74.6582 20.7148H74.2891ZM74.4121 41.0527C73.5801 41.0527 73.1641 40.8242 73.1641 40.3672V25.2852C73.1641 24.8281 73.5801 24.5996 74.4121 24.5996H74.5352C75.3789 24.5996 75.8008 24.8281 75.8008 25.2852V40.3672C75.8008 40.8242 75.3789 41.0527 74.5352 41.0527H74.4121ZM82.8145 41.0527C81.9707 41.0527 81.5488 40.8242 81.5488 40.3672V18.1836C81.5488 17.7266 81.9707 17.498 82.8145 17.498H82.9375C83.7695 17.498 84.1855 17.7266 84.1855 18.1836V32.1582H84.3086L90.2852 25.0215C90.5078 24.7402 91.0586 24.5996 91.9375 24.5996H92.043C92.4062 24.5996 92.6816 24.6348 92.8691 24.7051C93.0566 24.7754 93.1504 24.8691 93.1504 24.9863C93.1504 25.1621 93.0449 25.373 92.834 25.6191L87.0156 32.4922L93.4668 40.1211C93.6426 40.3203 93.7305 40.4844 93.7305 40.6133C93.7305 40.7891 93.6309 40.9062 93.4316 40.9648C93.2324 41.0234 92.8809 41.0527 92.377 41.0527H92.2363C91.8027 41.0527 91.4512 41.0293 91.1816 40.9824C90.9121 40.9355 90.7012 40.8242 90.5488 40.6484L84.3086 33.2305H84.1855V40.3672C84.1855 40.8242 83.7695 41.0527 82.9375 41.0527H82.8145ZM109.463 41.0527C108.725 41.0527 108.303 40.8887 108.197 40.5605L103.17 25.5312C103.1 25.3203 103.064 25.1855 103.064 25.127C103.064 24.9629 103.176 24.834 103.398 24.7402C103.621 24.6465 103.961 24.5996 104.418 24.5996H104.576C105.303 24.5996 105.719 24.7637 105.824 25.0918L109.006 35.0586C109.264 35.832 109.562 36.8867 109.902 38.2227L110.096 38.9609H110.236L110.447 38.0293C110.705 36.7988 110.945 35.832 111.168 35.1289L114.385 25.0918C114.49 24.7637 114.918 24.5996 115.668 24.5996H115.756C116.541 24.5996 116.934 24.7754 116.934 25.127C116.934 25.2441 116.893 25.3848 116.811 25.5488L111.801 40.5605C111.695 40.8887 111.273 41.0527 110.535 41.0527H109.463ZM126.531 41.1758C124.176 41.1758 122.377 40.4727 121.135 39.0664C119.904 37.6484 119.289 35.5918 119.289 32.8965C119.289 30.2012 119.916 28.127 121.17 26.6738C122.424 25.209 124.211 24.4766 126.531 24.4766C128.828 24.4766 130.586 25.2031 131.805 26.6562C133.023 28.0977 133.633 30.1777 133.633 32.8965C133.633 35.6035 133.029 37.6602 131.822 39.0664C130.627 40.4727 128.863 41.1758 126.531 41.1758ZM126.443 38.9258C127.967 38.9258 129.092 38.4336 129.818 37.4492C130.545 36.4531 130.908 34.918 130.908 32.8438C130.908 30.7578 130.545 29.2168 129.818 28.2207C129.092 27.2246 127.967 26.7266 126.443 26.7266C124.932 26.7266 123.818 27.2246 123.104 28.2207C122.389 29.2051 122.031 30.7461 122.031 32.8438C122.031 34.9297 122.383 36.4648 123.086 37.4492C123.801 38.4336 124.92 38.9258 126.443 38.9258ZM144.32 41.1758C141.965 41.1758 140.166 40.4727 138.924 39.0664C137.693 37.6484 137.078 35.5918 137.078 32.8965C137.078 30.2012 137.705 28.127 138.959 26.6738C140.213 25.209 142 24.4766 144.32 24.4766C146.617 24.4766 148.375 25.2031 149.594 26.6562C150.812 28.0977 151.422 30.1777 151.422 32.8965C151.422 35.6035 150.818 37.6602 149.611 39.0664C148.416 40.4727 146.652 41.1758 144.32 41.1758ZM144.232 38.9258C145.756 38.9258 146.881 38.4336 147.607 37.4492C148.334 36.4531 148.697 34.918 148.697 32.8438C148.697 30.7578 148.334 29.2168 147.607 28.2207C146.881 27.2246 145.756 26.7266 144.232 26.7266C142.721 26.7266 141.607 27.2246 140.893 28.2207C140.178 29.2051 139.82 30.7461 139.82 32.8438C139.82 34.9297 140.172 36.4648 140.875 37.4492C141.59 38.4336 142.709 38.9258 144.232 38.9258ZM157.223 41.0527C156.777 41.0527 156.455 41 156.256 40.8945C156.057 40.7773 155.957 40.6016 155.957 40.3672V29.3984C155.957 28.0391 155.893 27.0605 155.764 26.4629C155.635 25.8535 155.57 25.5195 155.57 25.4609C155.57 25.2031 155.764 25.0215 156.15 24.916C156.549 24.7988 156.924 24.7402 157.275 24.7402C157.557 24.7402 157.768 24.8926 157.908 25.1973C158.049 25.4902 158.172 25.9062 158.277 26.4453L158.365 26.8145C159.479 25.2559 160.686 24.4766 161.986 24.4766C162.584 24.4766 163.035 24.5879 163.34 24.8105C163.645 25.0215 163.797 25.3086 163.797 25.6719C163.797 26.0234 163.732 26.3984 163.604 26.7969C163.486 27.1836 163.346 27.377 163.182 27.377C163.1 27.377 162.953 27.3418 162.742 27.2715C162.555 27.1895 162.367 27.1309 162.18 27.0957C161.992 27.0488 161.752 27.0254 161.459 27.0254C160.979 27.0254 160.521 27.166 160.088 27.4473C159.666 27.7285 159.309 28.0391 159.016 28.3789C158.723 28.7188 158.576 28.9062 158.576 28.9414V40.3672C158.576 40.6016 158.477 40.7773 158.277 40.8945C158.078 41 157.768 41.0527 157.346 41.0527H157.223ZM180.602 41.0527C180.168 41.0527 179.852 41 179.652 40.8945C179.453 40.7773 179.354 40.6016 179.354 40.3672V21.5059H173.342C173.119 21.5059 172.961 21.4297 172.867 21.2773C172.773 21.125 172.727 20.8906 172.727 20.5742V20.0645C172.727 19.7363 172.773 19.502 172.867 19.3613C172.961 19.209 173.119 19.1328 173.342 19.1328H188.002C188.225 19.1328 188.383 19.209 188.477 19.3613C188.57 19.502 188.617 19.7363 188.617 20.0645V20.5742C188.617 20.8906 188.57 21.125 188.477 21.2773C188.383 21.4297 188.225 21.5059 188.002 21.5059H182.113V40.3672C182.113 40.8242 181.691 41.0527 180.848 41.0527H180.602ZM198.408 41.0527C197.682 41.0527 197.266 40.8887 197.16 40.5605L190.006 19.9941C189.936 19.8535 189.9 19.7188 189.9 19.5898C189.9 19.4258 190.012 19.2969 190.234 19.2031C190.469 19.0977 190.809 19.0449 191.254 19.0449H191.535C192.25 19.0449 192.666 19.2148 192.783 19.5547L198.566 36.2363L198.883 37.8711H198.971L199.322 36.2012L205.088 19.5547C205.217 19.2148 205.639 19.0449 206.354 19.0449H206.529C207.432 19.0449 207.883 19.2266 207.883 19.5898C207.883 19.707 207.848 19.8535 207.777 20.0293L200.623 40.5605C200.518 40.8887 200.102 41.0527 199.375 41.0527H198.408ZM214.615 41.2988C213.736 41.2988 212.916 41.1875 212.154 40.9648C211.393 40.7422 210.783 40.4727 210.326 40.1562C209.881 39.8281 209.658 39.541 209.658 39.2949C209.658 39.1777 209.717 38.9902 209.834 38.7324C209.963 38.4746 210.109 38.2461 210.273 38.0469C210.449 37.8359 210.607 37.7305 210.748 37.7305C210.783 37.7305 210.889 37.7891 211.064 37.9062C211.533 38.2109 212.025 38.4688 212.541 38.6797C213.068 38.8906 213.695 38.9961 214.422 38.9961C216.461 38.9961 217.48 38.1523 217.48 36.4648C217.48 35.9844 217.381 35.5801 217.182 35.252C216.994 34.9238 216.672 34.6367 216.215 34.3906C215.77 34.1328 215.154 33.8867 214.369 33.6523C213.244 33.3242 212.365 32.9492 211.732 32.5273C211.111 32.1055 210.672 31.6133 210.414 31.0508C210.156 30.4766 210.027 29.7852 210.027 28.9766C210.027 28.1094 210.244 27.3301 210.678 26.6387C211.123 25.9473 211.738 25.4082 212.523 25.0215C213.32 24.6348 214.217 24.4414 215.213 24.4414C215.904 24.4414 216.566 24.5059 217.199 24.6348C217.844 24.7637 218.359 24.9336 218.746 25.1445C219.145 25.3438 219.344 25.5547 219.344 25.7773C219.344 25.9414 219.285 26.1641 219.168 26.4453C219.062 26.7148 218.928 26.9551 218.764 27.166C218.6 27.3652 218.453 27.4648 218.324 27.4648C218.301 27.4648 218.154 27.3945 217.885 27.2539C217.615 27.1016 217.27 26.9668 216.848 26.8496C216.438 26.7207 215.98 26.6562 215.477 26.6562C214.68 26.6562 214.018 26.8379 213.49 27.2012C212.975 27.5527 212.717 28.0273 212.717 28.625C212.717 29.3281 212.904 29.8906 213.279 30.3125C213.654 30.7344 214.275 31.0801 215.143 31.3496C216.479 31.7598 217.498 32.1699 218.201 32.5801C218.904 32.9902 219.402 33.4941 219.695 34.0918C220 34.6777 220.152 35.4512 220.152 36.4121C220.152 37.3262 219.906 38.1582 219.414 38.9082C218.922 39.6465 218.254 40.2324 217.41 40.666C216.566 41.0879 215.635 41.2988 214.615 41.2988ZM232.949 20.7148C232.117 20.7148 231.701 20.4863 231.701 20.0293V18.1836C231.701 17.7266 232.117 17.498 232.949 17.498H233.318C234.162 17.498 234.584 17.7266 234.584 18.1836V20.0293C234.584 20.4863 234.162 20.7148 233.318 20.7148H232.949ZM233.072 41.0527C232.24 41.0527 231.824 40.8242 231.824 40.3672V25.2852C231.824 24.8281 232.24 24.5996 233.072 24.5996H233.195C234.039 24.5996 234.461 24.8281 234.461 25.2852V40.3672C234.461 40.8242 234.039 41.0527 233.195 41.0527H233.072ZM241.229 41.0527C240.783 41.0527 240.461 41 240.262 40.8945C240.062 40.7773 239.963 40.6016 239.963 40.3672V29.3984C239.963 28.0391 239.898 27.0605 239.77 26.4629C239.641 25.8535 239.576 25.5195 239.576 25.4609C239.576 25.2031 239.77 25.0215 240.156 24.916C240.555 24.7988 240.93 24.7402 241.281 24.7402C241.574 24.7402 241.791 24.8984 241.932 25.2148C242.072 25.5312 242.172 25.8535 242.23 26.1816C242.301 26.5098 242.348 26.7207 242.371 26.8145C243.027 26.0762 243.783 25.502 244.639 25.0918C245.506 24.6816 246.379 24.4766 247.258 24.4766C248.852 24.4766 250.094 24.9277 250.984 25.8301C251.887 26.7207 252.338 27.9512 252.338 29.5215V40.3672C252.338 40.6016 252.238 40.7773 252.039 40.8945C251.84 41 251.523 41.0527 251.09 41.0527H250.949C250.527 41.0527 250.217 41 250.018 40.8945C249.818 40.7773 249.719 40.6016 249.719 40.3672V29.7852C249.719 28.8242 249.438 28.0801 248.875 27.5527C248.324 27.0137 247.545 26.7441 246.537 26.7441C245.834 26.7441 245.125 26.9434 244.41 27.3418C243.707 27.7285 243.098 28.2617 242.582 28.9414V40.3672C242.582 40.6016 242.482 40.7773 242.283 40.8945C242.084 41 241.773 41.0527 241.352 41.0527H241.229ZM271.357 41.0527C270.631 41.0527 270.215 40.8887 270.109 40.5605L262.955 19.9941C262.885 19.8535 262.85 19.7188 262.85 19.5898C262.85 19.4258 262.961 19.2969 263.184 19.2031C263.418 19.0977 263.758 19.0449 264.203 19.0449H264.484C265.199 19.0449 265.615 19.2148 265.732 19.5547L271.516 36.2363L271.832 37.8711H271.92L272.271 36.2012L278.037 19.5547C278.166 19.2148 278.588 19.0449 279.303 19.0449H279.479C280.381 19.0449 280.832 19.2266 280.832 19.5898C280.832 19.707 280.797 19.8535 280.727 20.0293L273.572 40.5605C273.467 40.8887 273.051 41.0527 272.324 41.0527H271.357ZM289.832 41.1758C287.477 41.1758 285.678 40.4727 284.436 39.0664C283.205 37.6484 282.59 35.5918 282.59 32.8965C282.59 30.2012 283.217 28.127 284.471 26.6738C285.725 25.209 287.512 24.4766 289.832 24.4766C292.129 24.4766 293.887 25.2031 295.105 26.6562C296.324 28.0977 296.934 30.1777 296.934 32.8965C296.934 35.6035 296.33 37.6602 295.123 39.0664C293.928 40.4727 292.164 41.1758 289.832 41.1758ZM289.744 38.9258C291.268 38.9258 292.393 38.4336 293.119 37.4492C293.846 36.4531 294.209 34.918 294.209 32.8438C294.209 30.7578 293.846 29.2168 293.119 28.2207C292.393 27.2246 291.268 26.7266 289.744 26.7266C288.232 26.7266 287.119 27.2246 286.404 28.2207C285.689 29.2051 285.332 30.7461 285.332 32.8438C285.332 34.9297 285.684 36.4648 286.387 37.4492C287.102 38.4336 288.221 38.9258 289.744 38.9258ZM307.621 41.1758C305.266 41.1758 303.467 40.4727 302.225 39.0664C300.994 37.6484 300.379 35.5918 300.379 32.8965C300.379 30.2012 301.006 28.127 302.26 26.6738C303.514 25.209 305.301 24.4766 307.621 24.4766C309.918 24.4766 311.676 25.2031 312.895 26.6562C314.113 28.0977 314.723 30.1777 314.723 32.8965C314.723 35.6035 314.119 37.6602 312.912 39.0664C311.717 40.4727 309.953 41.1758 307.621 41.1758ZM307.533 38.9258C309.057 38.9258 310.182 38.4336 310.908 37.4492C311.635 36.4531 311.998 34.918 311.998 32.8438C311.998 30.7578 311.635 29.2168 310.908 28.2207C310.182 27.2246 309.057 26.7266 307.533 26.7266C306.021 26.7266 304.908 27.2246 304.193 28.2207C303.479 29.2051 303.121 30.7461 303.121 32.8438C303.121 34.9297 303.473 36.4648 304.176 37.4492C304.891 38.4336 306.01 38.9258 307.533 38.9258ZM320.523 41.0527C320.078 41.0527 319.756 41 319.557 40.8945C319.357 40.7773 319.258 40.6016 319.258 40.3672V29.3984C319.258 28.0391 319.193 27.0605 319.064 26.4629C318.936 25.8535 318.871 25.5195 318.871 25.4609C318.871 25.2031 319.064 25.0215 319.451 24.916C319.85 24.7988 320.225 24.7402 320.576 24.7402C320.857 24.7402 321.068 24.8926 321.209 25.1973C321.35 25.4902 321.473 25.9062 321.578 26.4453L321.666 26.8145C322.779 25.2559 323.986 24.4766 325.287 24.4766C325.885 24.4766 326.336 24.5879 326.641 24.8105C326.945 25.0215 327.098 25.3086 327.098 25.6719C327.098 26.0234 327.033 26.3984 326.904 26.7969C326.787 27.1836 326.646 27.377 326.482 27.377C326.4 27.377 326.254 27.3418 326.043 27.2715C325.855 27.1895 325.668 27.1309 325.48 27.0957C325.293 27.0488 325.053 27.0254 324.76 27.0254C324.279 27.0254 323.822 27.166 323.389 27.4473C322.967 27.7285 322.609 28.0391 322.316 28.3789C322.023 28.7188 321.877 28.9062 321.877 28.9414V40.3672C321.877 40.6016 321.777 40.7773 321.578 40.8945C321.379 41 321.068 41.0527 320.646 41.0527H320.523ZM331.949 41.0527C331.504 41.0527 331.182 41 330.982 40.8945C330.783 40.7773 330.684 40.6016 330.684 40.3672V29.3984C330.684 28.0391 330.619 27.0605 330.49 26.4629C330.361 25.8535 330.297 25.5195 330.297 25.4609C330.297 25.2031 330.49 25.0215 330.877 24.916C331.275 24.7988 331.65 24.7402 332.002 24.7402C332.283 24.7402 332.494 24.8926 332.635 25.1973C332.775 25.4902 332.898 25.9062 333.004 26.4453L333.092 26.8145C334.205 25.2559 335.412 24.4766 336.713 24.4766C337.311 24.4766 337.762 24.5879 338.066 24.8105C338.371 25.0215 338.523 25.3086 338.523 25.6719C338.523 26.0234 338.459 26.3984 338.33 26.7969C338.213 27.1836 338.072 27.377 337.908 27.377C337.826 27.377 337.68 27.3418 337.469 27.2715C337.281 27.1895 337.094 27.1309 336.906 27.0957C336.719 27.0488 336.479 27.0254 336.186 27.0254C335.705 27.0254 335.248 27.166 334.814 27.4473C334.393 27.7285 334.035 28.0391 333.742 28.3789C333.449 28.7188 333.303 28.9062 333.303 28.9414V40.3672C333.303 40.6016 333.203 40.7773 333.004 40.8945C332.805 41 332.494 41.0527 332.072 41.0527H331.949ZM346.17 41.1758C344.576 41.1758 343.287 40.7832 342.303 39.998C341.318 39.2129 340.826 38.0469 340.826 36.5C340.826 34.8711 341.324 33.6465 342.32 32.8262C343.316 31.9941 344.529 31.4609 345.959 31.2266C347.4 30.9805 349.146 30.8398 351.197 30.8047V29.3281C351.197 28.543 350.928 27.916 350.389 27.4473C349.861 26.9668 348.988 26.7266 347.77 26.7266C346.844 26.7266 346.029 26.8379 345.326 27.0605C344.635 27.2715 343.984 27.5293 343.375 27.834C343.117 27.9629 342.959 28.0273 342.9 28.0273C342.76 28.0273 342.602 27.9277 342.426 27.7285C342.262 27.5176 342.115 27.2832 341.986 27.0254C341.869 26.7676 341.811 26.5801 341.811 26.4629C341.811 26.1934 342.086 25.9004 342.637 25.584C343.199 25.2676 343.932 25.0039 344.834 24.793C345.736 24.582 346.68 24.4766 347.664 24.4766C349.621 24.4766 351.139 24.9043 352.217 25.7598C353.295 26.6152 353.834 27.8164 353.834 29.3633V36.377C353.834 37.7363 353.893 38.7207 354.01 39.3301C354.139 39.9277 354.203 40.2559 354.203 40.3145C354.203 40.5723 354.004 40.7598 353.605 40.877C353.219 40.9824 352.855 41.0352 352.516 41.0352C352.234 41.0352 352.023 40.877 351.883 40.5605C351.754 40.2441 351.625 39.7871 351.496 39.1895L351.426 38.8379C350.781 39.5527 350.02 40.1211 349.141 40.543C348.273 40.9648 347.283 41.1758 346.17 41.1758ZM346.311 38.9082C347.342 38.9082 348.221 38.7207 348.947 38.3457C349.674 37.9707 350.424 37.4375 351.197 36.7461V33.0547C349.65 33.0664 348.379 33.1309 347.383 33.248C346.387 33.3652 345.514 33.6641 344.764 34.1445C344.014 34.6133 343.639 35.3457 343.639 36.3418C343.639 37.1738 343.861 37.8125 344.307 38.2578C344.764 38.6914 345.432 38.9082 346.311 38.9082ZM363.221 41.1758C361.627 41.1758 360.338 40.7832 359.354 39.998C358.369 39.2129 357.877 38.0469 357.877 36.5C357.877 34.8711 358.375 33.6465 359.371 32.8262C360.367 31.9941 361.58 31.4609 363.01 31.2266C364.451 30.9805 366.197 30.8398 368.248 30.8047V29.3281C368.248 28.543 367.979 27.916 367.439 27.4473C366.912 26.9668 366.039 26.7266 364.82 26.7266C363.895 26.7266 363.08 26.8379 362.377 27.0605C361.686 27.2715 361.035 27.5293 360.426 27.834C360.168 27.9629 360.01 28.0273 359.951 28.0273C359.811 28.0273 359.652 27.9277 359.477 27.7285C359.312 27.5176 359.166 27.2832 359.037 27.0254C358.92 26.7676 358.861 26.5801 358.861 26.4629C358.861 26.1934 359.137 25.9004 359.688 25.584C360.25 25.2676 360.982 25.0039 361.885 24.793C362.787 24.582 363.73 24.4766 364.715 24.4766C366.672 24.4766 368.189 24.9043 369.268 25.7598C370.346 26.6152 370.885 27.8164 370.885 29.3633V36.377C370.885 37.7363 370.943 38.7207 371.061 39.3301C371.189 39.9277 371.254 40.2559 371.254 40.3145C371.254 40.5723 371.055 40.7598 370.656 40.877C370.27 40.9824 369.906 41.0352 369.566 41.0352C369.285 41.0352 369.074 40.877 368.934 40.5605C368.805 40.2441 368.676 39.7871 368.547 39.1895L368.477 38.8379C367.832 39.5527 367.07 40.1211 366.191 40.543C365.324 40.9648 364.334 41.1758 363.221 41.1758ZM363.361 38.9082C364.393 38.9082 365.271 38.7207 365.998 38.3457C366.725 37.9707 367.475 37.4375 368.248 36.7461V33.0547C366.701 33.0664 365.43 33.1309 364.434 33.248C363.438 33.3652 362.564 33.6641 361.814 34.1445C361.064 34.6133 360.689 35.3457 360.689 36.3418C360.689 37.1738 360.912 37.8125 361.357 38.2578C361.814 38.6914 362.482 38.9082 363.361 38.9082ZM381.08 41.1758C379.861 41.1758 378.795 40.8242 377.881 40.1211C376.967 39.4062 376.258 38.416 375.754 37.1504C375.262 35.8848 375.016 34.4492 375.016 32.8438C375.016 31.0742 375.279 29.5625 375.807 28.3086C376.346 27.043 377.096 26.0879 378.057 25.4434C379.018 24.7988 380.125 24.4766 381.379 24.4766C382.281 24.4766 383.078 24.6113 383.77 24.8809C384.473 25.1504 385.164 25.543 385.844 26.0586V18.1836C385.844 17.7266 386.254 17.498 387.074 17.498H387.215C388.047 17.498 388.463 17.7266 388.463 18.1836V36.377C388.463 37.7363 388.527 38.7207 388.656 39.3301C388.785 39.9277 388.85 40.2559 388.85 40.3145C388.85 40.5723 388.65 40.7598 388.252 40.877C387.865 40.9824 387.502 41.0352 387.162 41.0352C386.928 41.0352 386.74 40.9238 386.6 40.7012C386.459 40.4785 386.359 40.2559 386.301 40.0332C386.254 39.7988 386.172 39.4004 386.055 38.8379C384.566 40.3965 382.908 41.1758 381.08 41.1758ZM381.625 38.9082C382.316 38.9082 383.031 38.7207 383.77 38.3457C384.52 37.9707 385.211 37.4375 385.844 36.7461V28.1855C384.719 27.248 383.436 26.7793 381.994 26.7793C380.6 26.8145 379.545 27.3242 378.83 28.3086C378.127 29.293 377.775 30.7227 377.775 32.5977C377.775 34.6133 378.104 36.1719 378.76 37.2734C379.428 38.3633 380.383 38.9082 381.625 38.9082Z" fill="#00FF09"/>
</svg>
